<?xml version="1.0" standalone="no"?>
<!DOCTYPE svg PUBLIC "-//W3C//DTD SVG 20010904//EN"
 "http://www.w3.org/TR/2001/REC-SVG-20010904/DTD/svg10.dtd">
<svg version="1.0" xmlns="http://www.w3.org/2000/svg"
 width="700.000000pt" height="700.000000pt" viewBox="0 0 700.000000 700.000000"
 preserveAspectRatio="xMidYMid meet">
<metadata>
Created by potrace 1.11, written by Peter Selinger 2001-2013
</metadata>
<g transform="translate(0.000000,700.000000) scale(0.100000,-0.100000)"
fill="#000000" stroke="none">
<path d="M2230 6885 c0 -3 158 -345 350 -760 193 -415 350 -757 350 -759 0 -9
-152 -57 -159 -50 -4 5 -29 57 -56 117 l-48 107 -183 0 -183 0 18 -42 c10 -24
44 -97 75 -162 31 -66 55 -124 53 -129 -1 -5 -131 -53 -289 -107 -157 -53
-314 -113 -349 -133 -255 -144 -406 -395 -451 -750 -20 -155 -19 -1642 1
-1677 30 -52 478 -733 594 -900 296 -430 570 -771 842 -1049 286 -292 462
-437 578 -478 77 -27 223 -24 299 6 89 34 142 81 387 333 768 795 1181 1324
1552 1988 l64 115 0 825 c0 740 -2 837 -18 938 -35 219 -96 359 -212 481 -134
141 -203 176 -637 320 l-306 103 23 51 c12 29 46 100 73 160 l51 107 -186 -2
-185 -3 -45 -100 c-25 -55 -46 -101 -47 -102 -5 -6 -156 49 -156 57 0 4 153
338 341 741 187 404 343 740 346 747 4 9 -46 12 -233 12 l-239 -1 -320 -709
-320 -710 -131 0 -131 0 -320 708 -320 707 -237 3 c-130 1 -236 0 -236 -3z
m1756 -1785 c32 -11 64 -22 71 -24 7 -3 -97 -242 -274 -633 -156 -345 -290
-641 -297 -657 -11 -27 -25 0 -300 610 -159 352 -291 642 -293 646 -3 5 140
58 157 58 3 0 64 -126 135 -280 l129 -280 160 2 160 3 101 215 c55 119 115
248 133 288 19 39 39 72 46 72 7 0 39 -9 72 -20z m747 -253 c208 -71 356 -126
392 -148 125 -75 198 -178 235 -330 30 -125 40 -386 40 -1099 l0 -625 -67
-120 c-195 -351 -458 -727 -768 -1098 -200 -238 -330 -382 -662 -729 -280
-292 -322 -328 -389 -328 -73 1 -181 85 -443 343 -401 397 -687 772 -1290
1693 l-151 232 0 734 c0 445 4 767 10 818 30 239 118 407 269 507 43 29 134
65 360 142 166 57 304 101 306 99 5 -5 195 -409 195 -414 0 -2 -25 -4 -55 -4
l-55 0 0 -1260 0 -1260 280 0 280 0 2 768 3 767 62 -128 62 -128 127 3 127 3
66 144 66 143 3 -786 2 -786 280 0 280 0 0 1260 0 1260 -60 0 c-33 0 -60 2
-60 5 0 4 52 119 159 348 22 48 44 87 49 87 5 0 160 -51 345 -113z"/>
<path d="M5802 4018 l3 -111 470 -268 c258 -148 471 -272 473 -277 1 -4 -212
-126 -473 -272 l-475 -264 0 -108 c0 -60 3 -108 7 -108 4 0 274 150 600 333
l593 332 -2 94 -3 94 -598 333 -598 333 3 -111z"/>
<path d="M600 3784 l-595 -331 -2 -94 -3 -94 594 -332 c327 -183 597 -333 600
-333 3 0 6 49 6 108 l0 109 -475 264 c-261 145 -475 267 -475 270 0 4 212 127
471 275 259 147 473 273 475 279 3 6 3 56 2 111 l-3 100 -595 -332z"/>
</g>
</svg>
